<svg width="120" height="120" viewBox="0 0 120 120" fill="none" xmlns="http://www.w3.org/2000/svg">
<rect width="120" height="120" rx="30" fill="white"/>
<path d="M51.993 79.9787C58.8304 79.9787 65.6678 80.0266 72.4631 79.9787C75.1771 79.9547 77.0179 78.1852 77.0863 75.7109C77.1809 71.985 77.2651 68.2591 77.2178 64.538C77.1599 59.7427 77.1652 54.9187 76.7654 50.1522C76.3973 45.6926 72.3001 41.631 67.5139 40.7247C65.0496 40.275 62.5428 40.0469 60.0296 40.0438C49.1265 39.9719 38.2182 40.0007 27.3099 40.0438C26.1826 39.9975 25.0546 40.119 23.9701 40.4035C21.3404 41.2186 20.704 43.2087 20.7145 45.472C20.7513 52.8951 20.7145 60.3373 20.8933 67.7412C20.914 69.492 21.3051 71.2228 22.0452 72.8385C24.4067 77.7345 28.8037 79.9355 34.5734 79.9595C40.3431 79.9835 46.1812 79.9787 51.993 79.9787ZM99.1816 60.5771H99.2763C99.2763 55.3023 99.2763 50.0275 99.2763 44.7528C99.3266 43.8037 99.1767 42.8546 98.8345 41.9571C98.0035 40.202 95.563 39.9479 93.7169 41.3241C90.6454 43.6259 87.6001 45.9564 84.5285 48.2581C82.2985 49.9268 80.4682 51.8066 80.4471 54.631C80.4156 58.1858 80.4156 61.7407 80.4471 65.2956C80.4145 66.2577 80.6148 67.2146 81.0339 68.0981C81.453 68.9816 82.0805 69.7701 82.8718 70.4074C86.5534 73.2845 90.2982 76.0993 94.0378 78.9189C94.5032 79.3226 95.0992 79.5785 95.7369 79.6485C96.3747 79.7185 97.0203 79.5988 97.5775 79.3073C98.7872 78.7079 99.2132 77.7489 99.2079 76.5213C99.1816 71.2225 99.1816 65.8998 99.1816 60.5771Z" fill="#3683F7"/>
</svg>
